<?xml version="1.0" encoding="UTF-8"?>
<svg width="128px" height="128px" viewBox="0 0 128 128" version="1.1" xmlns="http://www.w3.org/2000/svg" xmlns:xlink="http://www.w3.org/1999/xlink">
    <!-- Generator: Sketch 61.2 (89653) - https://sketch.com -->
    <title>logo2</title>
    <desc>Created with Sketch.</desc>
    <g id="logo2" stroke="none" stroke-width="1" fill="none" fill-rule="evenodd">
        <path d="M46.8300781,61 L50.0996094,48.6835938 L50.1464844,48.6835938 L53.4042969,61 L55.5722656,61 L59.8378906,43.9140625 L57.1074219,43.9140625 L54.4121094,56.0546875 L54.3652344,56.0546875 L51.0605469,43.9140625 L49.1855469,43.9140625 L45.8691406,56.0546875 L45.8222656,56.0546875 L43.1386719,43.9140625 L40.4082031,43.9140625 L44.6738281,61 L46.8300781,61 Z M67.4316406,61.140625 C68.7910156,61.109375 69.9238281,60.78125 70.8300781,60.15625 C71.7285156,59.5546875 72.3769531,58.859375 72.7753906,58.0703125 C73.0644531,57.65625 73.2636719,57.1054688 73.3730469,56.4179688 C73.4746094,55.7304688 73.5253906,54.4101562 73.5253906,52.4570312 C73.5253906,50.4726562 73.4746094,49.1445312 73.3730469,48.4726562 C73.2636719,47.8007812 73.0644531,47.2578125 72.7753906,46.84375 C72.3769531,46.0546875 71.7285156,45.3515625 70.8300781,44.734375 C69.9238281,44.109375 68.7910156,43.7890625 67.4316406,43.7734375 C66.0878906,43.7890625 64.9667969,44.109375 64.0683594,44.734375 C63.1542969,45.3515625 62.4902344,46.0546875 62.0761719,46.84375 C61.8183594,47.2578125 61.6269531,47.8007812 61.5019531,48.4726562 C61.3847656,49.1445312 61.3261719,50.4726562 61.3261719,52.4570312 L61.3267801,52.7951314 C61.333268,54.5632975 61.391659,55.7709099 61.5019531,56.4179688 C61.5644531,56.7851562 61.6425781,57.0898438 61.7363281,57.3320312 C61.8378906,57.5664062 61.9511719,57.8125 62.0761719,58.0703125 C62.4902344,58.859375 63.1542969,59.5546875 64.0683594,60.15625 C64.9667969,60.78125 66.0878906,61.109375 67.4316406,61.140625 Z M67.4316406,58.5507812 C66.8222656,58.5507812 66.2988281,58.421875 65.8613281,58.1640625 C65.4160156,57.9453125 65.0566406,57.6601562 64.7832031,57.3085938 C64.4472656,56.9414062 64.2246094,56.4609375 64.1152344,55.8671875 C63.9902344,55.2734375 63.9277344,54.1367188 63.9277344,52.4570312 C63.9277344,50.7773438 63.9902344,49.6328125 64.1152344,49.0234375 C64.2246094,48.4453125 64.4472656,47.9726562 64.7832031,47.6054688 C65.0566406,47.2539062 65.4160156,46.9609375 65.8613281,46.7265625 C66.2988281,46.5 66.8222656,46.3789062 67.4316406,46.3632812 C68.0488281,46.3789062 68.5839844,46.5 69.0371094,46.7265625 C69.4667969,46.9609375 69.8105469,47.2539062 70.0683594,47.6054688 C70.4042969,47.9726562 70.6347656,48.4453125 70.7597656,49.0234375 C70.8769531,49.6328125 70.9355469,50.7773438 70.9355469,52.4570312 C70.9355469,54.1367188 70.8769531,55.2734375 70.7597656,55.8671875 C70.6347656,56.4609375 70.4042969,56.9414062 70.0683594,57.3085938 C69.8105469,57.6601562 69.4667969,57.9453125 69.0371094,58.1640625 C68.5839844,58.421875 68.0488281,58.5507812 67.4316406,58.5507812 Z M82.3496094,61 C83.6308594,61 84.7128906,60.71875 85.5957031,60.15625 C86.4863281,59.6328125 87.1816406,58.96875 87.6816406,58.1640625 C87.8691406,57.859375 88.0292969,57.5664062 88.1621094,57.2851562 C88.2871094,56.9960938 88.3808594,56.6679688 88.4433594,56.3007812 C88.5761719,55.5742188 88.6425781,54.2929688 88.6425781,52.4570312 C88.6425781,50.7304688 88.5996094,49.515625 88.5136719,48.8125 C88.4042969,48.109375 88.1425781,47.4375 87.7285156,46.796875 C86.5722656,44.890625 84.8378906,43.9296875 82.5253906,43.9140625 L82.5253906,43.9140625 L76.5488281,43.9140625 L76.5488281,61 L82.3496094,61 Z M82.2324219,58.5507812 L79.1386719,58.5507812 L79.1386719,46.3632812 L82.4750366,46.3634186 C83.6707153,46.3940887 84.6054688,46.8745117 85.2792969,47.8046875 C85.6308594,48.203125 85.8535156,48.7226562 85.9472656,49.3632812 C86.0175781,50.0039062 86.0527344,51.0664062 86.0527344,52.5507812 L86.0522656,52.8490104 C86.0478906,54.2106076 86.0128906,55.1502604 85.9472656,55.6679688 C85.8691406,56.2304688 85.6855469,56.6953125 85.3964844,57.0625 C84.7402344,58.0546875 83.6855469,58.5507812 82.2324219,58.5507812 L82.2324219,58.5507812 Z" id="WOD" stroke="#000000" fill="#000000" fill-rule="nonzero"></path>
        <rect id="Rectangle" fill="#000000" x="113" y="44" width="7" height="17" rx="3"></rect>
        <rect id="Rectangle" fill="#000000" x="103" y="24" width="7" height="58" rx="3"></rect>
        <rect id="Rectangle" fill="#000000" x="93" y="24" width="7" height="58" rx="3"></rect>
        <rect id="Rectangle" fill="#000000" x="8" y="44" width="7" height="17" rx="3"></rect>
        <rect id="Rectangle" fill="#000000" x="29" y="23" width="7" height="58" rx="3"></rect>
        <rect id="Rectangle" fill="#000000" x="19" y="23" width="7" height="58" rx="3"></rect>
        <path d="M23.6328125,101.140625 C25.3125,101.15625 26.7734375,100.5 28.015625,99.171875 L28.015625,99.171875 L26.2460938,97.6601562 L26.0639331,97.8352441 C25.3278014,98.5075814 24.5018029,98.84375 23.5859375,98.84375 C22.734375,98.84375 22.046875,98.5859375 21.5234375,98.0703125 C20.9609375,97.5625 20.6796875,96.8203125 20.6796875,95.84375 L20.6796875,95.84375 L28.2617188,95.84375 L28.2617188,93.828125 C28.2460938,92.2265625 27.75,90.96875 26.7734375,90.0546875 C25.8125,89.15625 24.6367188,88.6992188 23.2460938,88.6835938 C22.6679688,88.6835938 22.0820312,88.7890625 21.4882812,89 C20.8867188,89.2109375 20.34375,89.5546875 19.859375,90.03125 C19.3828125,90.5 18.9921875,91.140625 18.6875,91.953125 C18.3828125,92.75 18.2304688,93.75 18.2304688,94.953125 C18.2304688,96.203125 18.40625,97.21875 18.7578125,98 C19.078125,98.8125 19.4960938,99.4453125 20.0117188,99.8984375 C20.2773438,100.117188 20.5625,100.300781 20.8671875,100.449219 C21.15625,100.621094 21.453125,100.757812 21.7578125,100.859375 C22.3671875,101.046875 22.9921875,101.140625 23.6328125,101.140625 Z M25.8125,93.828125 L20.6796875,93.828125 C20.7265625,92.8828125 20.9804688,92.1679688 21.4414062,91.6835938 C21.9101562,91.2226562 22.5117188,90.9921875 23.2460938,90.9921875 C23.9804688,90.9921875 24.5820312,91.2226562 25.0507812,91.6835938 C25.5273438,92.1679688 25.78125,92.8828125 25.8125,93.828125 L25.8125,93.828125 Z M35.5859375,101 L40.0507812,88.8359375 L37.4492188,88.8359375 L34.6015625,97.3554688 L34.5546875,97.3554688 L31.6953125,88.8359375 L29.1054688,88.8359375 L33.5703125,101 L35.5859375,101 Z M46.2851562,101.140625 C47.9648438,101.15625 49.4257812,100.5 50.6679688,99.171875 L50.6679688,99.171875 L48.8984375,97.6601562 L48.7162768,97.8352441 C47.9801452,98.5075814 47.1541466,98.84375 46.2382812,98.84375 C45.3867188,98.84375 44.6992188,98.5859375 44.1757812,98.0703125 C43.6132812,97.5625 43.3320312,96.8203125 43.3320312,95.84375 L43.3320312,95.84375 L50.9140625,95.84375 L50.9140625,93.828125 C50.8984375,92.2265625 50.4023438,90.96875 49.4257812,90.0546875 C48.4648438,89.15625 47.2890625,88.6992188 45.8984375,88.6835938 C45.3203125,88.6835938 44.734375,88.7890625 44.140625,89 C43.5390625,89.2109375 42.9960938,89.5546875 42.5117188,90.03125 C42.0351562,90.5 41.6445312,91.140625 41.3398438,91.953125 C41.0351562,92.75 40.8828125,93.75 40.8828125,94.953125 C40.8828125,96.203125 41.0585938,97.21875 41.4101562,98 C41.7304688,98.8125 42.1484375,99.4453125 42.6640625,99.8984375 C42.9296875,100.117188 43.2148438,100.300781 43.5195312,100.449219 C43.8085938,100.621094 44.1054688,100.757812 44.4101562,100.859375 C45.0195312,101.046875 45.6445312,101.140625 46.2851562,101.140625 Z M48.4648438,93.828125 L43.3320312,93.828125 C43.3789062,92.8828125 43.6328125,92.1679688 44.09375,91.6835938 C44.5625,91.2226562 45.1640625,90.9921875 45.8984375,90.9921875 C46.6328125,90.9921875 47.234375,91.2226562 47.703125,91.6835938 C48.1796875,92.1679688 48.4335938,92.8828125 48.4648438,93.828125 L48.4648438,93.828125 Z M55.9296875,101 L55.9296875,93.6757812 C55.9453125,92.7851562 56.203125,92.140625 56.703125,91.7421875 C57.1484375,91.3359375 57.6835938,91.1328125 58.3085938,91.1328125 C58.8632812,91.1328125 59.3984375,91.3359375 59.9140625,91.7421875 L59.9140625,91.7421875 L61.6953125,89.6210938 C60.96875,89.0117188 60.1171875,88.6992188 59.140625,88.6835938 C57.8359375,88.6835938 56.78125,89.1640625 55.9765625,90.125 L55.9765625,90.125 L55.9296875,90.125 L55.9296875,88.8359375 L53.4804688,88.8359375 L53.4804688,101 L55.9296875,101 Z M63.3945312,105.921875 C64.1523438,105.921875 64.8320312,105.753906 65.4335938,105.417969 C66.0273438,105.066406 66.4921875,104.433594 66.828125,103.519531 L66.828125,103.519531 L72.0664062,88.8359375 L69.4648438,88.8359375 L66.59375,97.3554688 L66.546875,97.3554688 L63.6640625,88.8359375 L61.0742188,88.8359375 L65.4335938,100.519531 L64.765625,102.558594 C64.65625,102.910156 64.4648438,103.175781 64.1914062,103.355469 C63.9179688,103.527344 63.6210938,103.613281 63.3007812,103.613281 L63.3007812,103.613281 L62.5859375,103.613281 L62.5859375,105.921875 L63.3945312,105.921875 Z M83.3515625,101.140625 C84.6484375,101.109375 85.6992188,100.636719 86.5039062,99.7226562 L86.5039062,99.7226562 L86.5039062,101 L88.953125,101 L88.953125,83.9140625 L86.5039062,83.9140625 L86.5039062,90.125 L86.2296875,89.8765625 C85.8609375,89.5578125 85.4796875,89.2890625 85.0859375,89.0703125 C84.5546875,88.8125 83.9765625,88.6835938 83.3515625,88.6835938 C81.8671875,88.7226562 80.78125,89.2539062 80.09375,90.2773438 C79.7578125,90.6601562 79.5351562,91.1640625 79.4257812,91.7890625 C79.2929688,92.40625 79.2265625,93.4453125 79.2265625,94.90625 C79.2265625,96.34375 79.2929688,97.375 79.4257812,98 C79.5351562,98.65625 79.7578125,99.1757812 80.09375,99.5585938 C80.4609375,100.027344 80.9179688,100.402344 81.4648438,100.683594 C81.9882812,100.972656 82.6171875,101.125 83.3515625,101.140625 Z M84.1015625,98.6914062 C83.5234375,98.6914062 83.0820312,98.5820312 82.7773438,98.3632812 C82.4414062,98.1367188 82.1953125,97.8476562 82.0390625,97.4960938 C81.890625,97.1289062 81.7929688,96.7148438 81.7460938,96.2539062 C81.6992188,95.8164062 81.6757812,95.3671875 81.6757812,94.90625 C81.6757812,94.421875 81.6992188,93.9492188 81.7460938,93.4882812 C81.7929688,93.0585938 81.890625,92.6601562 82.0390625,92.2929688 C82.1953125,91.9257812 82.4414062,91.6367188 82.7773438,91.4257812 C83.0820312,91.2304688 83.5234375,91.1328125 84.1015625,91.1328125 C84.6796875,91.1328125 85.1367188,91.2460938 85.4726562,91.4726562 C85.8085938,91.6992188 86.0390625,91.9960938 86.1640625,92.3632812 C86.3203125,92.7304688 86.4257812,93.1289062 86.4804688,93.5585938 C86.4960938,93.9882812 86.5039062,94.4375 86.5039062,94.90625 C86.5039062,95.3359375 86.4960938,95.7734375 86.4804688,96.21875 C86.4257812,96.671875 86.3203125,97.0820312 86.1640625,97.4492188 C86.0390625,97.8164062 85.8085938,98.1132812 85.4726562,98.3398438 C85.1367188,98.5742188 84.6796875,98.6914062 84.1015625,98.6914062 Z M95.0234375,101.140625 C95.8515625,101.140625 96.5,101.039062 96.96875,100.835938 C97.4453125,100.640625 97.796875,100.335938 98.0234375,99.921875 L98.0234375,99.921875 L98.0703125,99.921875 L98.0703125,101 L100.519531,101 L100.519531,92.6914062 C100.503906,91.2070312 100.039062,90.1601562 99.125,89.5507812 C98.2109375,88.9570312 96.9882812,88.6679688 95.4570312,88.6835938 C93.6445312,88.6523438 92.2734375,89.2460938 91.34375,90.4648438 L91.34375,90.4648438 L93.265625,91.9296875 L93.3608099,91.785236 C93.5607462,91.5087691 93.8180804,91.3069196 94.1328125,91.1796875 C94.484375,91.0546875 94.9648438,90.9921875 95.5742188,90.9921875 C97.2539062,90.9609375 98.0859375,91.4804688 98.0703125,92.5507812 L98.0703125,92.5507812 L98.0703125,93.828125 L94.6835938,93.828125 C93.3867188,93.84375 92.4023438,94.1953125 91.7304688,94.8828125 C91.0585938,95.5546875 90.7226562,96.4023438 90.7226562,97.4257812 C90.7226562,98.4960938 91.109375,99.375 91.8828125,100.0625 C92.6171875,100.765625 93.6640625,101.125 95.0234375,101.140625 Z M95.5777181,98.8448079 L95.328125,98.84375 C94.515625,98.84375 93.9335938,98.6835938 93.5820312,98.3632812 C93.2148438,98.0742188 93.03125,97.7226562 93.03125,97.3085938 C93.015625,96.3632812 93.71875,95.875 95.140625,95.84375 L95.140625,95.84375 L98.0703125,95.84375 L98.0703125,96.7226562 C98.0703125,97.6367188 97.8789062,98.2226562 97.4960938,98.4804688 C97.0742188,98.7382812 96.3515625,98.859375 95.328125,98.84375 L95.5777181,98.8448079 Z M104.257812,105.921875 C105.015625,105.921875 105.695312,105.753906 106.296875,105.417969 C106.890625,105.066406 107.355469,104.433594 107.691406,103.519531 L107.691406,103.519531 L112.929688,88.8359375 L110.328125,88.8359375 L107.457031,97.3554688 L107.410156,97.3554688 L104.527344,88.8359375 L101.9375,88.8359375 L106.296875,100.519531 L105.628906,102.558594 C105.519531,102.910156 105.328125,103.175781 105.054688,103.355469 C104.78125,103.527344 104.484375,103.613281 104.164062,103.613281 L104.164062,103.613281 L103.449219,103.613281 L103.449219,105.921875 L104.257812,105.921875 Z" id="everyday" fill="#E63E3E" fill-rule="nonzero"></path>
    </g>
</svg>